<svg xmlns="http://www.w3.org/2000/svg" viewBox="0 0 64 64" x="0px" y="0px"><g data-name="Layer 26"><path fill="black" d="M51.09,45.67l6-6a1,1,0,0,0,0-1.41,13.31,13.31,0,0,0-16-2.14l-4.8-4.34L60.7,4.71A1,1,0,0,0,59.29,3.3L32,27.94,4.71,3.3A1,1,0,0,0,3.3,4.71L27.75,31.79l-4.82,4.34a13.33,13.33,0,0,0-16,2.13,1,1,0,0,0-.29.7,1,1,0,0,0,.29.71l6,6L4.16,54.42A3.83,3.83,0,0,0,6.87,61a3.8,3.8,0,0,0,2.71-1.12l8.75-8.75,6,6a1,1,0,0,0,.71.29,1,1,0,0,0,.7-.29,13.33,13.33,0,0,0,2.13-16L32,36.5l4.12,4.56a13.3,13.3,0,0,0,2.13,16,1,1,0,0,0,.71.29,1,1,0,0,0,.71-.29l6-6,8.75,8.75a3.83,3.83,0,1,0,5.41-5.42Zm-5-27.74L34.77,30.44l-1.28-1.15ZM8.17,58.42a1.87,1.87,0,0,1-2.59,0,1.82,1.82,0,0,1,0-2.59l8.74-8.74.6.59,2,2ZM25,54.94l-6-6h0l-2-2-8-8A11.31,11.31,0,0,1,25,54.94Zm1.72-15.58a12.79,12.79,0,0,0-2.08-2.08l4.45-4L30.65,35ZM17.93,17.93,34.15,32.58s0,0,0,0l0,0,5.16,4.66a12.76,12.76,0,0,0-1.11,1,12.51,12.51,0,0,0-1,1.1ZM39,54.94A11.32,11.32,0,0,1,54.94,39l-6,6h0l-4,4h0Zm19.43,3.48a1.87,1.87,0,0,1-2.59,0l-8.74-8.74,2.59-2.59,8.74,8.74a1.82,1.82,0,0,1,.54,1.3A1.78,1.78,0,0,1,58.42,58.42Z"/></g></svg>