<?xml version="1.0" encoding="UTF-8"?>
<svg width="1200pt" height="1200pt" version="1.1" viewBox="0 0 1200 1200" xmlns="http://www.w3.org/2000/svg">
 <path d="m861.96 82.98 41.363-22.98 41.363 22.98h27.574v22.98h-27.574v206.81h110.3v34.469l-110.3 11.488s13.789 712.34 13.789 712.34-55.148 68.938-55.148 68.938l-55.148-68.938 13.789-712.34-110.3-11.488v-34.469h110.3v-206.81h-27.574v-22.98h27.574zm-606.64 0 41.363-22.98 41.363 22.98h27.574v22.98h-27.574v206.81h110.3v34.469l-110.3 11.488 13.789 712.34-55.148 68.938-55.148-68.938 13.789-712.34-110.3-11.488v-34.469h110.3v-206.81h-27.574v-22.98h27.574zm303.32 1034 41.363 22.98 41.363-22.98h27.574v-22.98h-27.574v-206.81h110.3v-34.469l-110.3-11.488 13.789-712.34-55.148-68.938s-55.148 68.938-55.148 68.938 13.789 712.34 13.789 712.34l-110.3 11.488v34.469h110.3v206.81h-27.574v22.98h27.574z"/>
</svg>
